<?xml version="1.0" encoding="UTF-8"?>
<svg width="56px" height="56px" viewBox="0 0 56 56" version="1.1" xmlns="http://www.w3.org/2000/svg" xmlns:xlink="http://www.w3.org/1999/xlink">
    <title>编组 4</title>
    <g id="页面-1" stroke="none" stroke-width="1" fill="none" fill-rule="evenodd">
        <g id="桌面端HD备份" transform="translate(-358.000000, -1690.000000)">
            <g id="编组-27" transform="translate(334.000000, 1358.000000)">
                <g id="编组-7备份-2" transform="translate(0.000000, 308.000000)">
                    <g id="编组-4" transform="translate(24.000000, 24.000000)">
                        <circle id="椭圆形" fill="#1C68F3" cx="28" cy="28" r="28"></circle>
                        <g id="Base-logo" transform="translate(5.000000, 5.000000)" fill-rule="nonzero">
                            <circle id="Oval" fill="#1C68F3" cx="23" cy="23" r="23"></circle>
                            <path d="M36.8,17.6333333 L36.8,25.3 L13.8,25.3 L13.8,25.3000767 L12.8104355,25.3000991 C13.8577942,29.9519209 18.014393,33.4266667 22.982562,33.4266667 C27.0899167,33.4266667 30.6425717,31.0517154 32.3421972,27.6001429 L32.3421972,27.6001429 L36.8,27.6000767 L36.8,34.04 C36.8,35.5643059 35.5643059,36.8 34.04,36.8 L11.96,36.8 C10.4356941,36.8 9.2,35.5643059 9.2,34.04 L9.2,17.6333333 L36.8,17.6333333 Z M29.6950311,27.600128 C28.2313298,29.7400961 25.7709449,31.1444229 22.982562,31.1444229 C20.1941791,31.1444229 17.7337943,29.7400961 16.2700929,27.600128 L16.2700929,27.600128 L29.6950311,27.600128 Z M17.0966667,19.4733333 C14.933755,19.4733333 13.1444046,21.0727394 12.8468082,23.153375 L12.8468082,23.153375 L15.1994597,23.153375 C15.4581379,22.3525658 16.2097588,21.7733333 17.0966667,21.7733333 C17.9835746,21.7733333 18.7351954,22.3525658 18.9938736,23.153375 L18.9938736,23.153375 L21.3465252,23.153375 C21.0489287,21.0727394 19.2595783,19.4733333 17.0966667,19.4733333 Z M28.9033333,19.4733333 C26.7404217,19.4733333 24.9510713,21.0727394 24.6534748,23.153375 L24.6534748,23.153375 L27.0061264,23.153375 C27.2648046,22.3525658 28.0164254,21.7733333 28.9033333,21.7733333 C29.7902412,21.7733333 30.5418621,22.3525658 30.8005403,23.153375 L30.8005403,23.153375 L33.1531918,23.153375 C32.8555954,21.0727394 31.066245,19.4733333 28.9033333,19.4733333 Z M34.04,9.2 C35.5643059,9.2 36.8,10.4356941 36.8,11.96 L36.8,15.3333333 L9.2,15.3333333 L9.2,11.96 C9.2,10.4356941 10.4356941,9.2 11.96,9.2 L34.04,9.2 Z" id="maskbook-icon--book--black" fill="#FFFFFF"></path>
                        </g>
                    </g>
                </g>
            </g>
        </g>
    </g>
</svg>