<?xml version="1.0" encoding="UTF-8"?>
<svg width="63px" height="37px" viewBox="0 0 63 37" version="1.1" xmlns="http://www.w3.org/2000/svg" xmlns:xlink="http://www.w3.org/1999/xlink">
    <title>编组 78</title>
    <defs>
        <path d="M41.612,29.168 C42.788,29.168 43.74,28.216 43.74,27.04 L43.74,11.248 C43.74,10.072 42.788,9.12 41.612,9.12 L41.556,9.12 C40.968,9.12 40.352,9.26 39.54,9.484 L36.768,10.296 C35.9,10.548 35.34,11.276 35.34,12.144 C35.34,13.152 36.208,13.992 37.216,13.992 C37.44,13.992 37.748,13.936 37.972,13.88 L39.484,13.488 L39.484,27.04 C39.484,28.216 40.436,29.168 41.612,29.168 Z M60.484,29 C61.52,29 62.36,28.188 62.36,27.152 C62.36,26.116 61.52,25.276 60.484,25.276 L53.652,25.276 L56.844,22.812 C60.316,20.124 61.996,18.5 61.996,15.224 L61.996,15.168 C61.996,11.5 59.308,9.12 55.248,9.12 C52.28,9.12 50.432,10.184 48.864,12.004 C48.556,12.368 48.36,12.872 48.36,13.348 C48.36,14.44 49.228,15.308 50.32,15.308 C50.992,15.308 51.496,15 51.776,14.692 C52.868,13.516 53.736,12.984 54.968,12.984 C56.508,12.984 57.6,13.88 57.6,15.532 C57.6,17.156 56.648,18.248 54.212,20.236 L48.64,24.8 C47.912,25.388 47.52,26.116 47.52,26.956 C47.52,28.244 48.5,29 49.844,29 L60.484,29 Z" id="path-1"></path>
    </defs>
    <g id="页面-1" stroke="none" stroke-width="1" fill="none" fill-rule="evenodd">
        <g id="桌面端HD备份" transform="translate(-281.000000, -1676.000000)">
            <g id="编组-75" transform="translate(263.000000, 1347.000000)">
                <g id="编组-27" transform="translate(0.000000, 130.000000)">
                    <g id="编组-17" transform="translate(0.000000, 191.000000)">
                        <g id="编组-78" transform="translate(18.500000, 8.000000)">
                            <text id="👍" font-family="AppleColorEmoji, Apple Color Emoji" font-size="28" font-weight="normal" letter-spacing="0.676666647" fill="#333333">
                                <tspan x="0.161666676" y="28">👍</tspan>
                            </text>
                            <g id="12" fill-rule="nonzero" fill="#000000">
                                <use xlink:href="#path-1"></use>
                                <use xlink:href="#path-1"></use>
                            </g>
                        </g>
                    </g>
                </g>
            </g>
        </g>
    </g>
</svg>